HIERARCHY
ROOT Hips
{
	OFFSET 0.000000 0.000000 0.000000
	CHANNELS 6 Xposition Yposition Zposition Zrotation Yrotation Xrotation 
	JOINT LHipJoint
	{
		OFFSET 0.000000 0.000000 0.000000
		CHANNELS 3 Zrotation Yrotation Xrotation
		JOINT LeftUpLeg
		{
			OFFSET 1.363060 -1.794630 0.839290
			CHANNELS 3 Zrotation Yrotation Xrotation
			JOINT LeftLeg
			{
				OFFSET 2.448110 -6.726130 0.000000
				CHANNELS 3 Zrotation Yrotation Xrotation
				JOINT LeftFoot
				{
					OFFSET 2.562200 -7.039590 0.000000
					CHANNELS 3 Zrotation Yrotation Xrotation
					JOINT LeftToeBase
					{
						OFFSET 0.157640 -0.433110 2.322550
						CHANNELS 3 Zrotation Yrotation Xrotation
						End Site
						{
							OFFSET 0.000000 0.000000 0.000000
						}
					}
				}
			}
		}
	}
	JOINT RHipJoint
	{
		OFFSET 0.000000 0.000000 0.000000
		CHANNELS 3 Zrotation Yrotation Xrotation
		JOINT RightUpLeg
		{
			OFFSET -1.305520 -1.794630 0.839290
			CHANNELS 3 Zrotation Yrotation Xrotation
			JOINT RightLeg
			{
				OFFSET -2.542530 -6.985550 0.000000
				CHANNELS 3 Zrotation Yrotation Xrotation
				JOINT RightFoot
				{
					OFFSET -2.568260 -7.056230 0.000000
					CHANNELS 3 Zrotation Yrotation Xrotation
					JOINT RightToeBase
					{
						OFFSET -0.164730 -0.452590 2.363150
						CHANNELS 3 Zrotation Yrotation Xrotation
						End Site
						{
							OFFSET 0.000000 0.000000 0.000000
						}
					}
				}
			}
		}
	}
	JOINT LowerBack
	{
		OFFSET 0.000000 0.000000 0.000000
		CHANNELS 3 Zrotation Yrotation Xrotation
		JOINT Spine
		{
			OFFSET 0.028270 2.035590 -0.193380
			CHANNELS 3 Zrotation Yrotation Xrotation
			JOINT Spine1
			{
				OFFSET 0.056720 2.048850 -0.042750
				CHANNELS 3 Zrotation Yrotation Xrotation
				JOINT Neck
				{
					OFFSET 0.000000 0.000000 0.000000
					CHANNELS 3 Zrotation Yrotation Xrotation
					JOINT Neck1
					{
						OFFSET -0.054170 1.746240 0.172020
						CHANNELS 3 Zrotation Yrotation Xrotation
						JOINT Head
						{
							OFFSET 0.104070 1.761360 -0.123970
							CHANNELS 3 Zrotation Yrotation Xrotation
							End Site
							{
								OFFSET 0.000000 0.000000 0.000000
							}
						}
					}
				}
				JOINT LeftShoulder
				{
					OFFSET 0.000000 0.000000 0.000000
					CHANNELS 3 Zrotation Yrotation Xrotation
					JOINT LeftArm
					{
						OFFSET 3.362410 1.200890 -0.311210
						CHANNELS 3 Zrotation Yrotation Xrotation
						JOINT LeftForeArm
						{
							OFFSET 4.983000 -0.000000 -0.000000
							CHANNELS 3 Zrotation Yrotation Xrotation
							JOINT LeftHand
							{
								OFFSET 3.483560 -0.000000 -0.000000
								CHANNELS 3 Zrotation Yrotation Xrotation
								JOINT LeftFingerBase
								{
									OFFSET 0.000000 0.000000 0.000000
									CHANNELS 3 Zrotation Yrotation Xrotation
									JOINT LeftHandIndex1
									{
										OFFSET 0.715260 -0.000000 -0.000000
										CHANNELS 3 Zrotation Yrotation Xrotation
										End Site
										{
											OFFSET 0.000000 0.000000 0.000000
										}
									}
								}
								JOINT LThumb
								{
									OFFSET 0.000000 0.000000 0.000000
									CHANNELS 3 Zrotation Yrotation Xrotation
									End Site
									{
										OFFSET 0.000000 0.000000 0.000000
									}
								}
							}
						}
					}
				}
				JOINT RightShoulder
				{
					OFFSET 0.000000 0.000000 0.000000
					CHANNELS 3 Zrotation Yrotation Xrotation
					JOINT RightArm
					{
						OFFSET -3.136600 1.374050 -0.404650
						CHANNELS 3 Zrotation Yrotation Xrotation
						JOINT RightForeArm
						{
							OFFSET -5.241900 -0.000000 -0.000000
							CHANNELS 3 Zrotation Yrotation Xrotation
							JOINT RightHand
							{
								OFFSET -3.444170 -0.000000 -0.000000
								CHANNELS 3 Zrotation Yrotation Xrotation
								JOINT RightFingerBase
								{
									OFFSET 0.000000 0.000000 0.000000
									CHANNELS 3 Zrotation Yrotation Xrotation
									JOINT RightHandIndex1
									{
										OFFSET -0.622530 -0.000000 -0.000000
										CHANNELS 3 Zrotation Yrotation Xrotation
										End Site
										{
											OFFSET 0.000000 0.000000 0.000000
										}
									}
								}
								JOINT RThumb
								{
									OFFSET 0.000000 0.000000 0.000000
									CHANNELS 3 Zrotation Yrotation Xrotation
									End Site
									{
										OFFSET 0.000000 0.000000 0.000000
									}
								}
							}
						}
					}
				}
			}
		}
	}
}
MOTION
Frames: 11
Frame Time: 0.008333
-1.550251 17.400654 -0.848670 155.634429 -84.463991 -145.352980 -10.838019 -0.086323 2.535406 -4.798480 -8.127719 -34.915612 1.034666 2.012674 49.830765 2.927590 18.056613 15.985430 6.842200 0.000000 -66.800300 8.401091 -1.557182 2.491352 11.085082 6.017594 -8.103427 2.369467 1.167113 0.562951 -1.267675 -6.448978 -2.464126 -1.236900 -0.000000 -43.770600 -1.861855 -1.675572 -5.249464 -1.014732 -1.730108 -3.651636 -6.183305 -1.838457 1.215817 8.914064 -8.999901 -7.306636 -3.239394 -0.257696 0.119788 0.000000 0.000000 0.000000 -1.896669 8.819082 1.017177 -70.532108 -0.134709 7.229115 -3.168949 -26.169877 0.005257 6.455440 -4.252151 -0.244813 -0.101979 0.032687 -0.000000 0.000000 0.000000 0.000000 0.000000 0.000000 0.000000 13.716509 -5.953576 0.297836 73.718870 9.254875 -5.190442 3.365108 21.253229 0.015121 -0.905114 9.046937 -0.079752 0.099333 -0.126704 -0.000000 0.000000 0.000000 0.000000 0.000000 0.000000 0.000000 
-1.510112 17.402756 -0.873569 154.096342 -84.164978 -144.098035 -10.832023 -0.344076 2.457049 -4.849517 -8.343974 -36.772790 1.173316 2.123807 52.896917 2.958449 17.565290 19.370477 7.376600 0.000000 -65.885600 8.496969 -1.515431 2.291596 10.842956 5.534367 -8.103642 2.363217 1.083256 1.005648 -1.163339 -5.856043 -2.474576 -1.139700 0.000000 -44.305100 -2.080636 -1.652606 -4.949910 -1.057398 -1.679136 -3.599596 -6.158372 -1.786327 1.186148 8.816083 -8.907029 -7.282650 -3.232618 -0.256836 0.121883 0.000000 0.000000 0.000000 -2.021169 8.873666 1.039442 -70.444037 -0.117956 7.023537 -3.178946 -26.207868 0.005273 6.418288 -4.240682 -0.242817 -0.101632 0.032251 -0.000000 0.000000 0.000000 0.000000 0.000000 0.000000 0.000000 13.590565 -5.825812 0.299376 73.724547 9.466566 -5.008383 3.350921 21.388927 0.015001 -0.844104 8.975259 -0.074155 0.098623 -0.127672 -0.000000 0.000000 0.000000 0.000000 0.000000 0.000000 0.000000 
-1.467068 17.404055 -0.896931 152.517825 -83.889863 -142.825747 -10.813594 -0.620192 2.358268 -4.919221 -8.543531 -38.698089 1.281392 2.241385 56.041274 2.980924 16.843358 22.542219 7.671000 0.000001 -64.133700 8.593817 -1.466318 2.075259 10.591944 5.035027 -8.032358 2.353504 1.005386 1.371077 -1.065070 -5.298780 -2.465969 -1.051500 -0.000000 -44.840600 -2.299062 -1.626582 -4.602338 -1.101433 -1.624553 -3.540494 -6.136140 -1.730079 1.147557 8.724147 -8.812943 -7.262633 -3.229063 -0.256093 0.122185 0.000000 0.000000 0.000000 -2.149964 8.891740 1.067526 -70.378028 -0.134311 6.813256 -3.188680 -26.210087 0.005255 6.369680 -4.229143 -0.240323 -0.101038 0.031983 -0.000000 0.000000 0.000000 0.000000 0.000000 0.000000 0.000000 13.483183 -5.694152 0.308573 73.702249 9.685991 -4.816916 3.333237 21.559077 0.014859 -0.801049 8.919485 -0.070259 0.097859 -0.128938 -0.000000 0.000000 0.000000 0.000000 0.000000 0.000000 0.000000 
-1.421243 17.404627 -0.918716 150.877020 -83.648952 -141.516897 -10.784144 -0.908793 2.232479 -5.015447 -8.721582 -40.684645 1.368882 2.375689 59.288098 2.991836 15.934571 25.348481 7.710000 0.000000 -61.860100 8.690918 -1.410496 1.845764 10.335918 4.543401 -7.873875 2.338048 0.933962 1.646676 -0.979150 -4.811820 -2.438090 -0.976700 -0.000000 -45.360600 -2.516540 -1.599499 -4.202664 -1.146639 -1.568539 -3.473390 -6.117351 -1.671839 1.100394 8.643560 -8.716830 -7.245723 -3.228948 -0.255486 0.120832 0.000000 0.000000 0.000000 -2.276447 8.871761 1.101559 -70.336736 -0.190219 6.606215 -3.198133 -26.165165 0.005201 6.315288 -4.218715 -0.237630 -0.100227 0.031902 -0.000000 0.000000 0.000000 0.000000 0.000000 0.000000 0.000000 13.400295 -5.559907 0.325405 73.646031 9.913629 -4.612299 3.311678 21.757545 0.014695 -0.783521 8.886730 -0.068561 0.097069 -0.130489 -0.000000 0.000000 0.000000 0.000000 0.000000 0.000000 0.000000 
-1.372795 17.404658 -0.938916 149.155539 -83.449763 -140.157944 -10.746527 -1.204897 2.073498 -5.146675 -8.870369 -42.726606 1.451368 2.535642 62.665294 2.989719 14.908382 27.670897 7.519200 -0.000000 -59.327900 8.787555 -1.348651 1.607203 10.079580 4.085228 -7.614642 2.314726 0.868997 1.825666 -0.911548 -4.428706 -2.393854 -0.918900 0.000000 -45.819000 -2.732020 -1.573357 -3.748577 -1.192641 -1.513347 -3.398238 -6.102572 -1.613894 1.042717 8.578142 -8.614054 -7.227777 -3.232567 -0.255086 0.118919 0.000000 0.000000 0.000000 -2.394496 8.801862 1.141707 -70.321723 -0.273072 6.399149 -3.206829 -26.073938 0.005110 6.258327 -4.208722 -0.234940 -0.099183 0.031986 -0.000000 0.000000 0.000000 0.000000 0.000000 0.000000 0.000000 13.344985 -5.420509 0.350387 73.553780 10.145199 -4.396805 3.286061 21.976110 0.014503 -0.796013 8.882213 -0.069464 0.096261 -0.132307 -0.000000 0.000000 0.000000 0.000000 0.000000 0.000000 0.000000 
-1.322089 17.404361 -0.957772 147.324265 -83.296022 -138.723065 -10.703156 -1.505508 1.877455 -5.323579 -8.986009 -44.815648 1.546550 2.726171 66.193619 2.976328 13.857716 29.447252 7.163501 -0.000000 -56.829100 8.884730 -1.281841 1.362714 9.824587 3.677668 -7.248784 2.281722 0.809182 1.912665 -0.866102 -4.171710 -2.336296 -0.880200 0.000000 -46.202001 -2.947540 -1.550430 -3.239896 -1.239624 -1.461275 -3.315111 -6.092101 -1.558587 0.973855 8.531296 -8.500428 -7.205132 -3.239831 -0.254933 0.117416 0.000000 0.000000 0.000000 -2.497509 8.676829 1.187847 -70.333072 -0.373423 6.194585 -3.214636 -25.935520 0.004985 6.201785 -4.198892 -0.232252 -0.097920 0.032207 -0.000000 0.000000 0.000000 0.000000 0.000000 0.000000 0.000000 13.318938 -5.273927 0.383225 73.426746 10.377229 -4.172876 3.256368 22.204414 0.014281 -0.841217 8.908878 -0.073268 0.095443 -0.134347 -0.000000 0.000000 0.000000 0.000000 0.000000 0.000000 0.000000 
-1.269787 17.403978 -0.975599 145.355992 -83.186533 -137.185655 -10.655319 -1.809676 1.643454 -5.555578 -9.069298 -46.942369 1.670734 2.947840 69.880865 2.955816 12.881323 30.670702 6.728799 0.000000 -54.617799 8.984415 -1.211023 1.115139 9.570580 3.332039 -6.780055 2.237758 0.752339 1.924595 -0.844864 -4.051740 -2.272745 -0.860899 -0.000000 -46.486400 -3.166877 -1.532799 -2.679767 -1.288121 -1.414345 -3.224591 -6.086017 -1.508009 0.893823 8.505500 -8.372160 -7.174337 -3.250462 -0.255053 0.117275 0.000000 0.000000 0.000000 -2.579571 8.494797 1.239546 -70.369188 -0.479263 5.996376 -3.221573 -25.751496 0.004832 6.147537 -4.188675 -0.229665 -0.096462 0.032513 -0.000000 0.000000 0.000000 0.000000 0.000000 0.000000 0.000000 13.322541 -5.118332 0.423217 73.268723 10.606025 -3.942007 3.222894 22.430261 0.014024 -0.919526 8.967099 -0.079872 0.094621 -0.136535 -0.000000 0.000000 0.000000 0.000000 0.000000 0.000000 0.000000 
-1.216342 17.403761 -0.992915 143.206893 -83.115079 -135.504647 -10.601368 -2.118382 1.373716 -5.852734 -9.129119 -49.092194 1.835528 3.196198 73.711721 2.934691 12.074751 31.402764 6.308300 -0.000000 -53.103600 9.091326 -1.136557 0.865068 9.311826 3.045647 -6.223236 2.181977 0.694661 1.893294 -0.847076 -4.062250 -2.212133 -0.859200 -0.000000 -46.685300 -3.398270 -1.522786 -2.072813 -1.339597 -1.374499 -3.127121 -6.084242 -1.464146 0.804203 8.503652 -8.230290 -7.134102 -3.263982 -0.255434 0.118858 0.000000 0.000000 0.000000 -2.634518 8.260702 1.295796 -70.426978 -0.583514 5.813001 -3.228086 -25.521832 0.004659 6.095942 -4.177327 -0.227080 -0.094850 0.032851 -0.000000 0.000000 0.000000 0.000000 0.000000 0.000000 0.000000 13.357769 -4.956374 0.468897 73.086199 10.834014 -3.698452 3.185988 22.639484 0.013726 -1.030726 9.053778 -0.089578 0.093808 -0.138772 0.000000 0.000000 0.000000 0.000000 0.000000 0.000000 0.000000 
-1.162646 17.403907 -1.010253 140.868161 -83.071921 -133.666062 -10.539078 -2.431915 1.072819 -6.220181 -9.170442 -51.262369 2.049922 3.466167 77.666364 2.916095 11.485376 31.694136 5.956800 0.000000 -52.051100 9.209623 -1.059000 0.615581 9.043701 2.815733 -5.606455 2.114529 0.632624 1.860620 -0.870969 -4.188722 -2.168691 -0.871700 0.000000 -46.786500 -3.648386 -1.521409 -1.429910 -1.395324 -1.342669 -3.024876 -6.086815 -1.428086 0.704844 8.526387 -8.069583 -7.080743 -3.280039 -0.256114 0.123283 0.000000 0.000000 0.000000 -2.657269 7.973593 1.355937 -70.502371 -0.666194 5.646253 -3.234486 -25.256071 0.004477 6.044275 -4.162532 -0.224396 -0.093108 0.033135 -0.000000 0.000000 0.000000 0.000000 0.000000 0.000000 0.000000 13.422704 -4.783365 0.519264 72.889286 11.052455 -3.451671 3.146230 22.824701 0.013386 -1.166164 9.161908 -0.101684 0.092956 -0.140959 0.000000 0.000000 0.000000 0.000000 0.000000 0.000000 0.000000 
-1.109435 17.404612 -1.028261 138.332315 -83.043409 -131.655767 -10.462918 -2.751124 0.748883 -6.659613 -9.206526 -53.448978 2.316211 3.749062 81.695887 2.904515 11.142486 31.658037 5.717700 -0.000000 -51.553501 9.345145 -0.977958 0.368539 8.757082 2.630460 -4.968196 2.035948 0.562165 1.877998 -0.912884 -4.404517 -2.158301 -0.893000 0.000000 -46.805300 -3.926960 -1.529390 -0.764423 -1.457253 -1.319335 -2.919851 -6.093746 -1.400414 0.598159 8.574993 -7.893046 -7.014604 -3.298147 -0.257073 0.130582 0.000000 0.000000 0.000000 -2.643597 7.641805 1.418519 -70.589911 -0.718437 5.504504 -3.241562 -24.959686 0.004294 5.989191 -4.142168 -0.221213 -0.091284 0.033286 -0.000000 0.000000 0.000000 0.000000 0.000000 0.000000 0.000000 13.518454 -4.602407 0.572653 72.688044 11.262146 -3.198408 3.104310 22.977292 0.013002 -1.318260 9.282403 -0.115490 0.092043 -0.142985 0.000000 0.000000 0.000000 0.000000 0.000000 0.000000 0.000000 
-1.057470 17.406005 -1.047489 135.627096 -83.014188 -129.488855 -10.366375 -3.076014 0.412544 -7.165646 -9.251389 -55.658952 2.632110 4.036153 85.739661 2.902214 11.035753 31.413978 5.603000 -0.000000 -51.531700 9.502378 -0.892539 0.127271 8.443555 2.479551 -4.354864 1.947501 0.480232 1.998028 -0.968557 -4.679434 -2.197868 -0.916800 0.000000 -46.757200 -4.242444 -1.546428 -0.093987 -1.527164 -1.304158 -2.814871 -6.105179 -1.380935 0.486639 8.649935 -7.704268 -6.936831 -3.317916 -0.258297 0.140629 0.000000 0.000000 0.000000 -2.590915 7.273696 1.482019 -70.683611 -0.729961 5.394441 -3.250151 -24.641594 0.004124 5.925242 -4.113018 -0.217329 -0.089425 0.033223 -0.000000 0.000000 0.000000 0.000000 0.000000 0.000000 0.000000 13.645727 -4.416382 0.627609 72.492814 11.462475 -2.938665 3.061085 23.092979 0.012583 -1.475456 9.404061 -0.130098 0.091026 -0.144748 0.000000 0.000000 0.000000 0.000000 0.000000 0.000000 0.000000 
